<?xml version="1.0" standalone="no"?>
<!DOCTYPE svg PUBLIC "-//W3C//DTD SVG 20010904//EN"
 "http://www.w3.org/TR/2001/REC-SVG-20010904/DTD/svg10.dtd">
<svg version="1.0" xmlns="http://www.w3.org/2000/svg"
 width="903.000000pt" height="967.000000pt" viewBox="0 0 903.000000 967.000000"
 preserveAspectRatio="xMidYMid meet">
<metadata>
Created by potrace 1.16, written by Peter Selinger 2001-2019
</metadata>
<g transform="translate(0.000000,967.000000) scale(0.100000,-0.100000)"
fill="#000000" stroke="none">
<path d="M3389 9134 c-22 -27 -38 -274 -49 -744 -6 -250 -12 -473 -15 -495 -2
-22 -9 -92 -16 -155 -6 -63 -22 -173 -35 -245 -14 -71 -34 -217 -45 -323 -25
-248 -34 -293 -60 -314 -25 -21 -32 -21 -119 -7 -89 14 -345 91 -1110 334
-427 135 -499 152 -528 123 -7 -7 -12 -21 -12 -31 0 -39 79 -254 340 -927 223
-577 330 -882 330 -944 0 -69 -88 -122 -585 -346 -377 -170 -589 -275 -614
-301 -49 -53 -27 -73 209 -186 198 -95 297 -151 535 -302 188 -118 252 -166
271 -203 14 -28 14 -31 -13 -66 -15 -20 -184 -195 -375 -388 -255 -258 -348
-358 -348 -375 0 -37 93 -118 195 -171 50 -26 202 -94 339 -153 299 -127 304
-130 318 -159 17 -39 -13 -157 -113 -441 -153 -435 -157 -455 -118 -491 20
-18 46 -19 353 -25 199 -4 345 -11 367 -18 50 -16 80 -52 86 -103 3 -24 -7
-122 -21 -220 -41 -278 -37 -295 64 -285 60 7 167 37 244 70 l48 20 -4 46 c-3
25 -23 87 -45 136 -22 50 -77 198 -122 330 -46 132 -94 271 -109 309 -32 88
-85 143 -167 176 -136 54 -237 146 -300 273 -29 60 -37 87 -41 157 -11 152 21
292 88 396 18 27 70 87 116 134 l84 85 -7 235 c-13 449 29 1052 105 1500 11
63 31 190 44 281 29 196 66 368 107 495 l29 91 -40 77 c-50 97 -52 145 -11
232 42 90 175 218 283 274 128 67 244 141 353 229 324 259 724 403 1114 403
273 -1 591 -104 845 -274 149 -100 331 -327 489 -613 67 -119 82 -159 142
-375 88 -312 142 -552 155 -675 12 -126 29 -1007 30 -1576 l0 -336 122 -109
c67 -60 137 -128 155 -152 48 -64 67 -137 68 -267 1 -228 -58 -323 -281 -453
-117 -68 -118 -70 -204 -418 -41 -169 -111 -356 -187 -502 -74 -142 -73 -149
11 -188 85 -39 111 -41 132 -10 14 22 18 61 23 220 6 163 9 197 25 221 l18 28
112 -6 c61 -4 138 -13 171 -21 89 -23 293 -31 325 -14 36 20 32 57 -38 308
-76 273 -82 302 -82 410 0 150 6 155 223 202 165 35 278 73 404 134 112 55
183 114 183 152 0 25 -16 36 -172 122 -389 213 -564 366 -584 512 -26 189 291
560 780 913 217 156 310 259 271 299 -14 14 -47 20 -180 31 -177 16 -440 92
-688 199 -184 79 -246 127 -233 180 3 13 36 56 72 97 133 148 247 324 329 510
63 141 178 362 247 473 86 140 346 469 489 622 83 87 96 112 79 144 -9 17 -21
20 -76 20 -82 0 -235 -31 -374 -75 -173 -55 -284 -77 -805 -160 -88 -14 -206
-37 -262 -51 -69 -17 -123 -24 -165 -22 l-63 3 -7 45 c-10 70 -9 267 2 381 14
132 28 212 100 544 75 344 97 465 110 594 20 206 7 688 -19 714 -21 21 -62 -5
-118 -76 -62 -77 -342 -361 -729 -738 l-241 -234 -148 -218 c-137 -201 -190
-267 -217 -267 -32 0 -131 149 -255 384 -80 153 -228 380 -323 496 -126 154
-311 422 -475 685 -114 184 -159 232 -186 199z"/>
<path d="M4160 7010 c-41 -5 -123 -20 -181 -34 -156 -37 -386 -141 -376 -169
2 -7 51 -39 108 -72 153 -88 183 -111 300 -232 136 -142 219 -242 219 -266 0
-17 -5 -19 -35 -14 -55 9 -116 59 -232 187 -107 119 -200 203 -258 233 -17 8
-57 20 -90 26 -33 6 -82 22 -109 36 l-50 26 -52 -36 c-74 -51 -83 -64 -60 -81
11 -7 68 -30 129 -50 247 -82 332 -148 518 -399 213 -289 350 -387 518 -372
107 10 211 42 491 154 318 127 372 146 497 173 107 23 133 34 133 56 0 26 -71
156 -144 264 -87 129 -233 279 -341 349 -111 73 -305 166 -395 191 -138 37
-393 50 -590 30z"/>
<path d="M3175 6486 c-142 -28 -264 -95 -368 -205 -86 -90 -112 -174 -72 -235
36 -55 111 -48 227 22 142 85 207 106 323 107 97 0 104 -2 176 -37 96 -47 181
-125 313 -286 150 -184 286 -310 427 -393 l68 -41 143 1 c127 0 156 3 262 31
172 44 877 284 953 323 92 49 133 120 99 173 -43 65 -132 84 -272 60 -119 -20
-215 -54 -470 -164 -116 -50 -238 -99 -270 -108 -35 -9 -121 -18 -211 -21
l-153 -6 -62 31 c-93 46 -144 96 -295 286 -222 278 -356 399 -502 449 -72 25
-222 31 -316 13z"/>
<path d="M3212 6079 c-24 -4 -78 -27 -120 -51 -43 -23 -124 -66 -181 -95 -58
-29 -113 -60 -122 -69 -49 -44 -129 -394 -179 -784 -11 -91 -32 -230 -45 -310
-33 -201 -75 -612 -84 -814 -10 -252 2 -442 54 -821 83 -621 126 -836 225
-1151 87 -272 245 -630 348 -784 153 -231 450 -476 654 -538 159 -49 406 -82
610 -82 227 1 305 12 488 70 226 71 260 91 386 223 247 258 415 547 543 934
87 263 128 478 153 793 17 229 18 1619 0 1778 -20 177 -41 207 -63 86 -19
-105 -72 -199 -168 -295 -164 -164 -347 -239 -581 -239 -157 0 -229 13 -315
54 -151 71 -228 138 -325 281 -65 97 -86 140 -109 230 -60 228 -50 394 40 657
23 65 38 122 34 128 -12 20 -61 39 -141 54 -43 8 -93 19 -109 24 -129 39 -313
194 -489 412 -117 146 -177 206 -254 259 -91 61 -143 71 -250 50z m404 -499
c185 -47 391 -195 478 -343 77 -133 106 -298 87 -508 -16 -175 -42 -273 -112
-416 -53 -110 -69 -134 -137 -202 -95 -96 -195 -156 -288 -176 -107 -23 -348
-20 -451 5 -159 38 -287 115 -382 230 -138 166 -195 392 -171 685 13 169 28
226 94 361 47 95 65 120 128 180 86 81 179 133 304 169 165 47 304 52 450 15z
m466 -1935 c3 -165 11 -325 17 -354 15 -73 76 -195 113 -226 64 -54 126 -23
179 88 37 79 45 148 59 502 6 148 15 274 20 279 13 13 36 -18 50 -64 5 -19 10
-142 10 -275 0 -295 -13 -397 -64 -500 -38 -77 -106 -150 -151 -161 -69 -17
-182 61 -230 160 -57 117 -95 337 -95 557 0 205 23 306 68 297 15 -3 18 -33
24 -303z m-1174 86 c20 -11 50 -34 66 -51 58 -63 148 -88 351 -96 137 -6 143
-6 295 31 193 46 260 54 260 32 0 -35 -99 -90 -243 -133 -116 -35 -182 -39
-342 -20 -219 27 -338 63 -398 121 -43 41 -65 99 -47 120 15 19 13 19 58 -4z
m1852 -15 c25 -12 79 -41 121 -64 101 -56 191 -73 384 -75 181 -2 214 8 350
108 93 68 104 72 136 55 32 -18 22 -46 -37 -98 -169 -151 -465 -200 -759 -126
-151 39 -350 190 -294 224 17 11 39 6 99 -24z m-558 -1061 c5 -97 26 -138 72
-143 49 -6 83 43 101 148 l11 65 83 -2 c106 -2 206 -19 303 -50 l77 -25 -6
-47 c-7 -61 23 -145 54 -149 33 -5 97 32 135 79 l34 41 45 -21 c96 -46 196
-156 274 -304 57 -108 75 -173 75 -273 0 -144 -33 -248 -107 -333 -59 -70
-116 -91 -248 -91 -124 0 -161 -14 -190 -70 -14 -26 -14 -34 -3 -47 34 -42
135 -54 268 -32 148 24 243 98 319 249 51 103 65 171 58 290 -8 149 -69 315
-177 482 -34 51 -40 70 -38 103 4 56 27 57 81 2 84 -84 171 -273 202 -442 23
-121 16 -322 -14 -416 -24 -77 -99 -188 -168 -249 -117 -104 -233 -130 -490
-112 -93 7 -184 10 -203 6 -51 -10 -104 -39 -133 -73 -23 -28 -33 -47 -87
-169 -29 -64 -103 -136 -156 -151 -85 -23 -137 50 -154 219 -17 169 -35 206
-113 231 -29 9 -70 41 -136 104 l-93 90 -127 0 -126 0 -100 48 c-168 81 -188
105 -231 276 -29 111 -33 245 -10 328 25 92 65 187 101 235 36 49 134 122 177
133 23 6 26 3 37 -38 12 -49 67 -117 95 -117 23 0 55 75 56 130 1 97 42 127
197 142 59 6 123 16 143 24 19 7 51 13 71 13 l36 1 5 -85z m-792 -46 c10 -17
7 -28 -14 -60 -14 -21 -26 -41 -26 -43 0 -3 -21 -27 -48 -53 -32 -33 -66 -87
-110 -173 -82 -164 -95 -218 -90 -384 3 -121 5 -135 32 -186 59 -114 162 -230
235 -262 37 -17 64 -20 180 -19 75 1 163 6 196 11 48 8 63 7 82 -5 58 -39 13
-71 -138 -100 -146 -27 -283 -19 -362 22 -46 23 -176 153 -229 227 -114 163
-126 373 -36 643 81 245 279 475 328 382z"/>
<path d="M3409 5520 c-133 -22 -334 -95 -426 -156 -93 -63 -145 -137 -186
-269 -41 -130 -78 -313 -78 -380 0 -76 29 -205 72 -317 29 -77 39 -91 133
-184 108 -108 152 -137 276 -176 64 -20 96 -23 220 -23 127 0 154 3 219 24 91
30 212 109 253 165 76 103 165 330 194 500 25 144 7 344 -36 391 -10 11 -25
36 -33 55 -38 94 -201 243 -331 304 -126 59 -203 77 -277 66z m569 -417 c22
-16 27 -29 30 -69 3 -60 -13 -91 -58 -115 -74 -40 -143 -16 -174 61 -14 35
-14 45 -2 74 7 18 26 43 42 55 24 19 38 22 82 19 32 -3 64 -13 80 -25z"/>
<path d="M3913 2680 c-26 -11 -27 -19 -12 -75 15 -52 43 -92 81 -111 60 -31
98 17 98 122 0 42 -4 55 -19 64 -24 12 -117 12 -148 0z"/>
<path d="M4557 2683 c-78 -9 -83 -77 -11 -162 42 -49 63 -51 106 -12 32 28 33
32 31 97 -1 36 -4 68 -5 69 -7 7 -87 12 -121 8z"/>
<path d="M4219 1610 c-130 -6 -149 -14 -149 -65 0 -38 18 -55 85 -80 104 -38
147 -112 160 -280 9 -109 21 -145 49 -145 34 0 60 34 115 150 54 116 81 146
181 205 105 62 140 93 140 123 0 56 -23 65 -192 81 -154 14 -252 17 -389 11z"/>
<path d="M5629 5671 c-122 -41 -139 -53 -139 -92 0 -24 8 -32 61 -60 118 -63
286 -256 325 -371 8 -27 20 -48 25 -48 20 0 31 57 25 134 -7 92 -68 347 -102
424 -21 48 -25 52 -56 51 -18 -1 -81 -18 -139 -38z"/>
<path d="M5102 5480 c-68 -28 -192 -71 -275 -96 -183 -55 -196 -62 -229 -111
-104 -157 -156 -361 -145 -572 10 -201 70 -345 201 -476 69 -70 97 -90 190
-136 l109 -54 171 0 c170 0 171 0 244 32 180 78 320 191 366 295 45 103 71
265 71 448 0 187 -13 255 -72 374 -59 117 -191 234 -346 307 -107 50 -142 48
-285 -11z m544 -355 c66 -51 63 -152 -6 -188 -107 -55 -218 41 -165 142 36 70
113 91 171 46z"/>
<path d="M2338 3101 c-13 -11 -39 -46 -56 -79 -80 -149 -83 -368 -9 -495 54
-92 196 -190 243 -168 32 14 32 23 -16 351 -38 263 -60 370 -82 398 -15 18
-52 15 -80 -7z"/>
<path d="M6086 3067 c-29 -21 -36 -80 -42 -357 -8 -338 -3 -354 91 -290 61 42
120 113 158 189 44 90 44 160 1 251 -38 79 -99 162 -145 195 -38 29 -40 29
-63 12z"/>
</g>
</svg>
