<?xml version="1.0" standalone="no"?>
<!DOCTYPE svg PUBLIC "-//W3C//DTD SVG 20010904//EN"
 "http://www.w3.org/TR/2001/REC-SVG-20010904/DTD/svg10.dtd">
<svg version="1.0" xmlns="http://www.w3.org/2000/svg"
 width="1080.000000pt" height="1080.000000pt" viewBox="0 0 1080.000000 1080.000000"
 preserveAspectRatio="xMidYMid meet">
<metadata>
Created by potrace 1.16, written by Peter Selinger 2001-2019
</metadata>
<g transform="translate(0.000000,1080.000000) scale(0.100000,-0.100000)"
fill="#000000" stroke="none">
<path d="M5155 9783 c-606 -24 -1153 -178 -1737 -490 -1075 -573 -1799 -1477
-2139 -2672 -27 -96 -58 -218 -69 -270 -67 -335 -88 -972 -45 -1361 59 -527
249 -1112 511 -1578 426 -754 1120 -1410 1884 -1778 329 -159 723 -285 1120
-358 251 -46 325 -51 705 -51 524 1 759 28 1135 132 1450 399 2546 1460 2998
2903 82 265 107 382 136 650 50 452 41 1071 -19 1366 -109 533 -285 998 -540
1425 -610 1021 -1614 1744 -2775 1998 -124 27 -268 54 -320 60 -206 24 -583
35 -845 24z m646 -268 c930 -97 1752 -497 2444 -1190 164 -163 280 -305 409
-500 389 -586 582 -1089 662 -1725 21 -173 30 -726 15 -912 -25 -294 -76 -526
-191 -868 -191 -573 -442 -988 -872 -1449 -206 -220 -367 -358 -402 -345 -6 2
-19 32 -29 67 -10 34 -56 137 -103 230 -46 92 -84 172 -84 176 0 16 305 325
408 414 53 46 123 100 154 120 132 84 168 211 103 367 -36 87 -38 124 -15 266
19 110 21 155 17 304 -10 333 -76 597 -203 810 -78 130 -132 199 -240 306
-184 182 -408 304 -697 381 -92 24 -119 27 -267 27 -250 -1 -523 -49 -703
-124 -200 -83 -435 -283 -616 -525 -140 -186 -184 -285 -225 -500 -15 -77 -48
-218 -73 -313 l-46 -172 78 -160 c46 -97 79 -178 82 -204 5 -39 2 -48 -29 -82
-49 -54 -60 -80 -60 -133 0 -102 53 -210 128 -260 40 -26 57 -31 106 -31 78 0
106 -16 167 -99 135 -182 371 -358 603 -450 58 -23 87 -46 74 -58 -11 -12
-127 17 -227 56 l-97 38 -86 -176 c-128 -262 -153 -345 -197 -661 -28 -204
-52 -263 -80 -192 -6 15 -46 164 -89 332 -43 168 -95 366 -115 440 -20 74 -39
144 -42 155 -3 11 -57 200 -120 420 -63 220 -126 441 -140 490 -14 50 -28 96
-33 104 -4 8 -98 36 -218 67 -346 87 -460 132 -482 190 -26 68 -3 114 83 162
49 27 98 65 257 197 66 54 170 110 223 119 49 9 80 39 71 69 -4 12 -27 54 -52
92 -59 92 -62 132 -12 157 21 11 58 18 92 18 60 0 107 13 120 33 14 22 7 62
-31 180 -35 106 -37 118 -23 126 10 5 82 39 162 76 157 72 240 120 240 139 0
16 -57 56 -194 137 -112 66 -196 136 -196 164 0 17 38 36 180 91 178 69 506
244 504 269 -1 14 -128 80 -329 171 -93 43 -175 82 -182 88 -9 8 25 45 132
145 79 74 192 183 251 242 126 129 126 133 -4 143 -148 12 -328 44 -459 82
-44 12 -53 18 -53 37 0 22 77 166 234 437 80 137 121 220 109 220 -4 0 -129
-41 -278 -91 -148 -50 -293 -93 -322 -96 l-52 -6 -15 54 c-38 136 -70 463 -61
626 8 149 7 150 -98 100 -125 -60 -288 -185 -484 -372 -68 -64 -127 -114 -133
-110 -5 3 -94 109 -196 235 -197 243 -271 320 -310 320 -27 0 -27 -1 -43 -128
-25 -195 -127 -582 -153 -582 -5 0 -68 21 -141 46 -394 139 -412 144 -457 141
-41 -2 -45 -4 -42 -26 2 -13 19 -58 39 -100 73 -161 125 -345 135 -476 l3 -40
-60 -12 c-33 -6 -166 -21 -295 -33 -392 -34 -470 -44 -470 -61 0 -5 58 -69
128 -142 148 -153 237 -262 286 -350 52 -96 53 -103 14 -144 -43 -45 -174
-148 -319 -251 -64 -46 -130 -98 -148 -116 -40 -41 -45 -37 115 -94 60 -22
134 -52 164 -67 133 -67 280 -192 280 -238 0 -27 -35 -70 -176 -219 -95 -99
-151 -179 -139 -198 11 -17 93 -55 240 -110 209 -78 199 -71 192 -138 -2 -32
-21 -117 -42 -190 -39 -142 -40 -175 -2 -189 12 -4 101 -6 198 -5 l175 3 10
-111 c8 -86 15 -117 31 -138 28 -37 73 -35 137 7 28 17 61 31 75 31 15 0 70
-27 124 -59 54 -33 129 -72 167 -86 78 -30 100 -53 100 -105 0 -80 -33 -98
-426 -230 -162 -55 -302 -104 -312 -109 -33 -17 -129 -312 -287 -881 -73 -263
-81 -289 -88 -279 -1 2 -41 49 -88 104 -350 414 -531 678 -704 1030 -135 274
-224 517 -294 802 -81 328 -96 502 -88 1027 6 412 13 491 63 716 358 1597
1604 2798 3189 3074 120 21 215 32 395 49 110 11 543 5 671 -8z m-2106 -2912
c72 -30 105 -52 163 -107 83 -79 115 -182 98 -320 l-8 -57 -338 3 c-310 3
-340 5 -358 21 -60 54 -24 216 79 354 42 56 95 92 181 123 62 23 95 20 183
-17z m862 -149 c150 -31 281 -103 318 -174 32 -61 9 -161 -42 -181 -22 -9 -52
-6 -138 10 -60 11 -164 27 -230 36 -66 8 -151 19 -188 24 -37 5 -79 16 -92 25
-22 14 -25 24 -25 74 0 103 49 174 135 195 45 11 191 6 262 -9z m-1347 -1588
c38 -93 84 -191 101 -218 29 -45 33 -78 9 -78 -15 0 -68 77 -105 155 -40 85
-105 278 -105 314 0 48 27 2 100 -173z m3453 -193 c93 -155 117 -245 97 -363
-51 -305 -377 -484 -664 -364 -133 56 -235 152 -275 260 -20 52 -40 214 -27
214 33 0 414 64 478 81 129 32 180 62 266 150 42 44 79 79 83 79 4 0 23 -26
42 -57z m506 9 c26 -50 75 -95 140 -128 72 -36 253 -71 430 -84 80 -6 165 -13
189 -16 l43 -5 -6 -52 c-19 -162 -51 -241 -131 -321 -95 -94 -215 -140 -369
-139 -174 1 -304 67 -398 200 -85 120 -95 306 -23 458 36 76 82 138 97 129 5
-3 18 -22 28 -42z m-2451 -879 c62 -110 197 -379 258 -515 145 -321 137 -379
-75 -601 -93 -97 -127 -124 -139 -113 -11 12 24 60 117 160 113 122 164 196
163 235 -1 42 -73 212 -217 512 -143 296 -205 434 -205 452 1 22 47 -40 98
-130z m-233 26 c32 -61 76 -318 109 -634 30 -287 32 -395 7 -395 -23 0 -53
202 -96 645 -14 143 -30 287 -35 320 -16 101 -12 118 15 64z m-697 -155 c3
-77 -34 -674 -42 -682 -9 -8 -17 414 -11 561 8 176 16 222 38 215 8 -3 13 -34
15 -94z m-307 -940 c73 -53 139 -131 139 -164 0 -33 -21 -53 -52 -48 -18 2
-22 9 -20 27 3 28 -28 81 -66 113 -34 30 -82 87 -82 99 0 19 34 8 81 -27z"/>
</g>
</svg>
